<svg width="993" height="779" viewBox="0 0 993 779" fill="none" xmlns="http://www.w3.org/2000/svg">
<rect width="993" height="779" fill="white"/>
<path d="M37.1172 146.023C55.7286 144.472 75.8283 128.803 92.5887 121.278C115.637 110.929 141.037 101.009 165.073 93.2325C182.961 87.445 199.458 78.0116 217.245 71.7863C228.635 67.7997 240.563 63.6814 251.373 58.3824C256.425 55.9059 265.007 55.0162 269.107 51.3712C272.095 48.7157 277.339 46.758 281.171 45.9065C285.294 44.9903 289.81 42.0916 293.956 42.0916C298.993 42.0916 284.262 44.832 279.418 46.2158C265.768 50.1158 252.257 56.9396 240.341 64.4657C209.914 83.6826 172.325 86.1349 141.049 103.337C121.052 114.335 107.377 137.605 118.159 160.149C122.859 169.976 129.578 178.132 133.419 188.606C138.54 202.574 142.793 217.03 146.617 231.396C150.657 246.575 155.221 259.938 165.279 271.504C181.498 290.156 202.866 297.164 226.009 303.777C262.699 314.259 303.708 323.437 342.21 315.737C408.917 302.395 455.901 245.206 488.931 189.74C499.28 172.362 511.162 154.676 512.13 133.857C512.938 116.488 509.655 105.698 504.397 89.5207C500.912 78.7959 489.148 68.5896 479.858 62.9191C457.486 49.2635 410.151 44.2418 387.68 59.3104C341.099 90.547 317.508 130.339 305.71 184.379C298.51 217.363 290.622 260.91 328.291 278.412C346.906 287.062 386.959 297.906 407.271 287.073C426.856 276.628 443.397 268.642 453.565 248.305C457.278 240.88 456.066 232.5 461.195 225.003C466.39 217.41 471.197 213.013 463.154 223.353C445.778 245.694 431.42 276.015 406.136 290.888C363.628 315.893 311.396 317.624 264.983 332.028C255.982 334.821 246.788 335.754 237.763 338.42C230.994 340.42 204.262 346.424 202.397 354.814C198.279 373.348 193.171 392.035 189.303 411.008C175.981 476.35 174.455 542.298 174.455 608.766C174.455 632.362 177.671 654.957 178.167 678.26C178.648 700.839 205.883 702.8 223.122 702.8C256.353 702.8 290.92 688.852 319.217 672.177C344.387 657.345 365.268 644.663 385.618 623.408C409.011 598.975 423.178 557.618 424.902 524.013C425.46 513.118 428.683 494.427 424.18 484.626C417.37 469.804 410.487 453.906 400.878 440.393C392.065 428 385.27 413.121 373.761 402.965C363.2 393.647 351.049 387.968 338.395 382.344C329.347 378.323 320.922 373.058 311.794 369.146C299.214 363.755 285.076 362.579 272.098 358.629C253.798 353.06 231.724 352.331 212.811 352.031C202.364 351.865 202.758 352.172 202.191 362.651C201.455 376.275 197.185 389.85 196.727 403.378C196.369 413.925 191.372 423.06 191.159 433.279C190.735 453.627 185.535 473.966 183.735 494.215C182.112 512.473 178.065 530.601 176.414 548.758C174.821 566.285 176.311 584.584 176.311 602.168C176.311 630.127 179.573 661.283 190.231 687.334C194.887 698.715 224.865 698.919 234.67 699.088C249.096 699.337 263.546 699.088 277.975 699.088C287.188 699.088 292.065 692.717 299.73 689.087C314.476 682.102 328.965 673.729 343.757 667.537C354.76 662.931 359.383 653.56 366.646 646.297C370.39 642.553 375.105 635.246 377.163 630.006C382.73 615.837 376.057 636.129 374.173 640.523C363.984 664.299 378.238 684.526 396.754 698.263C425.1 719.294 468.211 723.152 501.716 713.729C550.38 700.042 581.241 660.897 610.185 621.552C640.607 580.196 675.38 497.971 607.091 474.934C543.478 453.474 428.044 453.799 406.446 536.592C402.071 553.36 401.49 571.634 399.434 588.764C397.238 607.067 394.415 625.563 392.629 643.926C391.457 655.981 390.562 669.037 391.805 681.147C393.284 695.57 410.902 700.983 422.737 702.8C449.399 706.893 473.878 704.656 500.273 704.656C539.471 704.656 570.325 680.468 589.151 646.091C594.473 636.372 598.163 625.58 604.617 616.396C611.36 606.801 610.138 622.954 610.494 629.182C611.884 653.514 613.492 682.03 634.312 697.644C644.143 705.018 661.635 711.933 674.008 714.863C683.585 717.132 692.647 717.647 702.362 717.647C710.76 717.647 713.763 715.372 721.54 712.492C725.742 710.936 725.881 689.728 725.561 684.447C724.21 662.149 713.898 639.964 708.033 618.458C703.301 601.109 698.951 583.609 697.413 565.668C695.257 540.519 694.083 514.379 698.753 489.472C701.1 476.959 703.684 460.132 711.229 449.57C717.307 441.061 724.891 430.716 737.109 431.938C747.227 432.95 755.728 436.786 765.36 439.053C779.559 442.394 782.082 419.905 784.848 410.389C794.913 375.753 801.739 341.888 806.294 306.251C807.868 293.933 808.19 281.617 809.593 269.339C810.271 263.406 811.037 263.661 811.037 268.823C811.037 291.141 813.126 314.841 809.799 336.977C805.763 363.833 799.14 393.186 790.518 419.05C774.58 466.865 770.592 518.116 764.639 567.936C759.483 611.076 745.038 652.649 735.562 694.861C732.849 706.949 727.581 722.389 718.137 731.36C711.473 737.691 697.227 739.151 688.752 740.64C671.262 743.712 654.085 743.63 636.374 743.63C610.215 743.63 583.728 742.454 557.6 744.042C548.327 744.606 545.181 746.292 542.856 755.075C541.696 759.457 536.36 786.251 536.36 767.757" stroke="black" stroke-width="5" stroke-linecap="round"/>
</svg>
